<?xml version="1.0" standalone="no"?>
<!DOCTYPE svg PUBLIC "-//W3C//DTD SVG 20010904//EN"
 "http://www.w3.org/TR/2001/REC-SVG-20010904/DTD/svg10.dtd">
<svg version="1.0" xmlns="http://www.w3.org/2000/svg"
 width="1920.000000pt" height="1920.000000pt" viewBox="0 0 1920.000000 1920.000000"
 preserveAspectRatio="xMidYMid meet">

<g transform="translate(0.000000,1920.000000) scale(0.100000,-0.100000)"
fill="#000000" stroke="none">
<path d="M0 9600 l0 -9600 9600 0 9600 0 0 9600 0 9600 -9600 0 -9600 0 0
-9600z m9905 4050 c717 -61 1369 -286 1950 -674 230 -153 427 -317 634 -525
l155 -156 -708 -3 -708 -2 -88 50 c-367 210 -814 349 -1253 391 -161 15 -573
6 -712 -15 -408 -62 -770 -183 -1097 -366 l-107 -60 -707 2 -708 3 155 156
c695 700 1581 1113 2569 1198 139 12 487 12 625 1z m-577 -2367 l-3 -458
-1312 -3 -1312 -2 -21 -58 c-76 -198 -170 -526 -170 -591 l0 -21 1408 -2 1407
-3 3 -1342 2 -1343 -1590 0 -1589 0 -37 58 c-118 183 -310 605 -378 829 l-7
23 1248 2 1248 3 3 337 2 338 -1327 2 -1328 3 -13 105 c-22 168 -21 710 1 890
49 398 148 776 293 1125 48 116 209 433 257 508 l38 57 1589 0 1590 0 -2 -457z
m1642 -338 l0 -795 860 0 860 0 0 21 c0 70 -98 406 -180 619 -107 275 -346
659 -550 885 -28 31 -50 57 -50 60 0 3 257 5 570 5 l571 0 40 -62 c52 -83 238
-459 283 -574 132 -341 217 -681 263 -1054 25 -204 25 -696 0 -900 -46 -373
-131 -713 -263 -1054 -45 -115 -231 -491 -283 -573 l-40 -63 -1591 0 -1590 0
0 455 0 455 1303 0 c1027 0 1307 3 1319 13 14 10 71 163 122 322 22 70 76 300
76 324 l0 21 -1407 2 -1408 3 -3 1343 -2 1342 550 0 550 0 0 -795z m-2892
-4095 c364 -203 793 -337 1227 -381 141 -14 449 -14 590 0 441 45 882 183
1245 391 l87 50 708 0 708 0 -85 -92 c-306 -334 -749 -659 -1181 -868 -567
-274 -1156 -410 -1777 -410 -950 0 -1870 333 -2594 938 -149 124 -271 238
-365 341 l-83 91 707 0 706 0 107 -60z"/>
</g>
</svg>
